<?xml version="1.0" encoding="utf-8"?>
<!-- Generator: Adobe Illustrator 24.1.3, SVG Export Plug-In . SVG Version: 6.00 Build 0)  -->
<svg version="1.1" id="Layer_1" xmlns="http://www.w3.org/2000/svg" xmlns:xlink="http://www.w3.org/1999/xlink" x="0px" y="0px"
	 viewBox="0 0 85.04 85.04" style="enable-background:new 0 0 85.04 85.04;" xml:space="preserve">
<style type="text/css">
	.st0{fill:#172F55;}
	.st1{fill:#FFFFFF;}
</style>
<g>
	<path class="st0" d="M67.45,79.45H17.59c-6.6,0-12-5.4-12-12V17.59c0-6.6,5.4-12,12-12h49.86c6.6,0,12,5.4,12,12v49.86
		C79.45,74.05,74.05,79.45,67.45,79.45z"/>
	<path class="st1" d="M43.83,28.72c-0.49-2.4-1.75-4.41-3.79-6.02c-2.43-1.91-6.39-2.87-11.87-2.87h-7.33v38.48h6.26V42.57h1.13
		l11.84,15.75h7.65l-12.83-16.4c2.76-0.55,4.98-1.8,6.66-3.76c1.02-1.18,1.72-2.51,2.12-3.97h6.77v33.02h6.26V34.18h9.51v-5.46
		H43.83z M29.09,37.51H27.1V25.29h2.23c5.76,0,8.65,1.97,8.65,5.91C37.97,35.4,35.01,37.51,29.09,37.51z"/>
</g>
</svg>
