<?xml version="1.0" encoding="UTF-8" standalone="no"?>
<!-- Created with Inkscape (http://www.inkscape.org/) -->

<svg
   width="65mm"
   height="40mm"
   viewBox="0 0 65 40"
   version="1.1"
   id="svg1"
   xml:space="preserve"
   inkscape:version="1.3.2 (091e20e, 2023-11-25)"
   sodipodi:docname="fishbrain.svg"
   xmlns:inkscape="http://www.inkscape.org/namespaces/inkscape"
   xmlns:sodipodi="http://sodipodi.sourceforge.net/DTD/sodipodi-0.dtd"
   xmlns="http://www.w3.org/2000/svg"
   xmlns:svg="http://www.w3.org/2000/svg"><sodipodi:namedview
     id="namedview1"
     pagecolor="#ffffff"
     bordercolor="#000000"
     borderopacity="0.25"
     inkscape:showpageshadow="2"
     inkscape:pageopacity="0.0"
     inkscape:pagecheckerboard="0"
     inkscape:deskcolor="#d1d1d1"
     inkscape:document-units="mm"
     inkscape:zoom="2.1976527"
     inkscape:cx="103.97457"
     inkscape:cy="106.70476"
     inkscape:window-width="1440"
     inkscape:window-height="900"
     inkscape:window-x="0"
     inkscape:window-y="0"
     inkscape:window-maximized="0"
     inkscape:current-layer="layer4" /><defs
     id="defs1"><inkscape:path-effect
       effect="mirror_symmetry"
       start_point="25.969684,20.834613"
       end_point="56.43792,20.833453"
       center_point="41.203802,20.834033"
       id="path-effect56"
       is_visible="true"
       lpeversion="1.2"
       lpesatellites=""
       mode="free"
       discard_orig_path="false"
       fuse_paths="false"
       oposite_fuse="false"
       split_items="false"
       split_open="false"
       link_styles="false" /><inkscape:path-effect
       effect="mirror_symmetry"
       start_point="32.326339,2.0760034"
       end_point="32.326339,34.328197"
       center_point="32.326339,18.2021"
       id="path-effect48"
       is_visible="true"
       lpeversion="1.2"
       lpesatellites=""
       mode="free"
       discard_orig_path="false"
       fuse_paths="false"
       oposite_fuse="false"
       split_items="false"
       split_open="false"
       link_styles="false" /><inkscape:path-effect
       effect="mirror_symmetry"
       start_point="32.326339,2.0760034"
       end_point="32.326339,34.328197"
       center_point="32.326339,18.2021"
       id="path-effect40"
       is_visible="true"
       lpeversion="1.2"
       lpesatellites=""
       mode="free"
       discard_orig_path="false"
       fuse_paths="false"
       oposite_fuse="false"
       split_items="false"
       split_open="false"
       link_styles="false" /></defs><g
     inkscape:groupmode="layer"
     id="layer4"
     inkscape:label="Layer 3"><g
       id="g60"
       transform="translate(-0.69952581,-0.7772509)"><g
         id="g56"><path

           d="m 7.7486362,20.005532 -2.822384,-1.90691 0.3212774,-2.677311 5.1404374,-3.641143 h 4.497882 l 2.784403,1.178017 0.535463,-1.713479 8.139025,-7.1751932 6.532639,-0.5354624 1.820571,1.6063867 v 2.2489411 l 2.356035,-1.6063864 4.819158,6.6397312 6.104271,-1.392202 7.924839,3.319866 5.354622,2.998588 m -53.5081756,4.316106 -2.8222388,1.907125 0.3214813,2.677287 5.1407141,3.640751 4.497882,-3.42e-4 2.784314,-1.178229 0.535593,1.713438 8.139572,7.174574 6.532679,0.534965 1.820449,-1.606526 -1.71e-4,-2.248941 2.356157,1.606207 4.818652,-6.640098 6.104377,1.391737 7.924587,-3.320469 5.354393,-2.998996"
           id="path48"
           sodipodi:nodetypes="cccccccccccccccc" /><path

           d="m 18.741177,15.528404 5.675899,1.499294 3.855328,-2.891496 2.248942,-5.140437 -0.428371,-2.9985885 m -11.351394,20.1441955 5.675785,-1.499726 3.855548,2.891203 2.249333,5.140265 -0.428142,2.998621"
           id="path49" /><path

           d="m 29.771697,20.240471 1.499295,-5.997177 2.57022,-5.0333442 m -4.06947,12.2185152 1.499752,5.997063 2.570603,5.033149"
           id="path50"
           sodipodi:nodetypes="ccc" /><path

           d="m 14.204767,19.388497 -0.605891,-2.827489 2.760168,-2.356241 0.875176,3.904628 -0.605891,1.615708 m -2.423452,2.556522 -0.605676,2.827535 2.760348,2.356031 0.874879,-3.904695 -0.606014,-1.615662"
           id="path51" /><path

           d="M 11.107993,10.36746 8.2131828,6.3955112 10.030854,1.9523139 15.55119,3.0294527 21.610096,1.4810658 23.225804,2.9621316 21.340811,7.0014017 17.570825,10.36746 Z m 7.97e-4,20.935438 -2.8945077,3.972169 1.8180097,4.443059 5.520254,-1.077559 6.059024,1.547925 1.615595,-1.481189 -1.885301,-4.039126 -3.770242,-3.365772 z"
           id="path52" /><path

           d="m 18.580643,17.436183 0.336606,3.029453 m -0.336347,3.76797 0.336375,-3.029479"
           id="path53" /><path

           d="m 36.016826,9.4922848 1.61571,6.7321182 0.201962,3.904627 m -1.816808,12.047146 1.615197,-6.732241 0.201665,-3.904642"
           id="path54"
           sodipodi:nodetypes="ccc" /><path

           d="m 46.653571,20.600278 3.298738,-3.904628 4.510518,0.673212 2.894809,1.884993 m -10.704047,1.813518 3.299035,3.904377 4.510467,-0.673556 2.894665,-1.885213"
           id="path55" /><path

           d="m 43.893403,18.647964 4.510519,-4.510518 5.453015,1.14446 3.366058,2.356241 m -13.329426,5.38175 4.510863,4.510175 5.452928,-1.144875 3.365878,-2.356498"
           id="path56" /></g><path

         d="m 20.752599,20.908049 h 7.461607"
         id="path57" /><path

         d="M 49.744058,20.830324 H 61.09192"
         id="path58" /><path

         d="m 31.711836,20.752599 h 4.430329"
         id="path59" /><path

         d="m 39.795246,20.830324 h 3.342179"
         id="path60" /></g></g></svg>
