<?xml version="1.0" encoding="UTF-8" standalone="no"?>
<!-- Created with Inkscape (http://www.inkscape.org/) -->

<svg
   width="65mm"
   height="40mm"
   viewBox="0 0 65 40"
   version="1.1"
   id="svg1"
   xml:space="preserve"
   inkscape:version="1.3.2 (091e20e, 2023-11-25)"
   sodipodi:docname="flybrain.svg"
   xmlns:inkscape="http://www.inkscape.org/namespaces/inkscape"
   xmlns:sodipodi="http://sodipodi.sourceforge.net/DTD/sodipodi-0.dtd"
   xmlns="http://www.w3.org/2000/svg"
   xmlns:svg="http://www.w3.org/2000/svg"><sodipodi:namedview
     id="namedview1"
     pagecolor="#ffffff"
     bordercolor="#000000"
     borderopacity="0.25"
     inkscape:showpageshadow="2"
     inkscape:pageopacity="0.0"
     inkscape:pagecheckerboard="0"
     inkscape:deskcolor="#d1d1d1"
     inkscape:document-units="mm"
     inkscape:zoom="3.1424846"
     inkscape:cx="125.21939"
     inkscape:cy="66.348775"
     inkscape:window-width="1440"
     inkscape:window-height="900"
     inkscape:window-x="0"
     inkscape:window-y="0"
     inkscape:window-maximized="0"
     inkscape:current-layer="layer2" /><defs
     id="defs1"><inkscape:path-effect
       effect="mirror_symmetry"
       start_point="32.326339,2.0760034"
       end_point="32.326339,34.328197"
       center_point="32.326339,18.2021"
       id="path-effect48"
       is_visible="true"
       lpeversion="1.2"
       lpesatellites=""
       mode="free"
       discard_orig_path="false"
       fuse_paths="false"
       oposite_fuse="false"
       split_items="false"
       split_open="false"
       link_styles="false" /><inkscape:path-effect
       effect="mirror_symmetry"
       start_point="32.326339,2.0760034"
       end_point="32.326339,34.328197"
       center_point="32.326339,18.2021"
       id="path-effect40"
       is_visible="true"
       lpeversion="1.2"
       lpesatellites=""
       mode="free"
       discard_orig_path="false"
       fuse_paths="false"
       oposite_fuse="false"
       split_items="false"
       split_open="false"
       link_styles="false" /></defs><g
     inkscape:groupmode="layer"
     id="layer2"
     inkscape:label="Layer 2"><g
       id="g48"
       transform="translate(0.08419559,0.92615146)"><path
         
         d="m 32.326339,31.584908 -5.857296,-0.370713 -2.150146,-2.150147 -1.260431,-3.558863 -1.853574,-1.408717 -1.853575,5.190009 -1.853574,0.815573 -4.893437,4.226147 -8.3781562,-2.001858 -3.9295779,-6.228011 0.9638587,-7.859155 3.7812918,-5.783153 4.8934367,-1.557002 1.6311449,2.817433 h 1.853575 l 0.593144,-1.334574 -1.408717,-2.298432 2.150147,-3.0398621 0.889715,-2.2242894 7.636727,-2.7432901 8.971301,0.6672868 m 0.07414,28.8416178 5.857296,-0.370713 2.150146,-2.150147 1.260431,-3.558863 1.853574,-1.408717 1.853575,5.190009 1.853574,0.815573 4.893437,4.226147 8.378156,-2.001858 3.929578,-6.228011 -0.963859,-7.859155 -3.781291,-5.783153 -4.893437,-1.557002 -1.631145,2.817433 H 51.232799 L 50.639655,12.381877 52.048372,10.083445 49.898225,7.0435829 49.00851,4.8192935 41.371783,2.0760034 32.400482,2.7432902"
         id="path40"
         sodipodi:nodetypes="ccccccccccccccccccccc" /><path

         d="m 11.71459,15.495882 1.631146,7.117726 3.114005,4.077865 m 36.478347,-11.195591 -1.631146,7.117726 -3.114005,4.077865"
         id="path41" /><path

         d="M 9.5644442,31.955623 5.7090092,29.064048 3.9295779,22.391179 7.5625837,14.754453 m 47.5256503,17.20117 3.855435,-2.891575 1.779431,-6.672869 -3.633006,-7.636726"
         id="path42" /><path

         d="m 20.537605,13.419879 -3.752521,0.886437 -1.066776,5.564002 3.114005,1.927718 0.593144,1.038001 m 24.689616,-9.416158 3.752521,0.886437 1.066776,5.564002 -3.114005,1.927718 -0.593144,1.038001"
         id="path43"
         sodipodi:nodetypes="ccccc" /><path

         d="m 31.36248,13.19745 v 3.558863 l -0.815573,2.817433 1.705288,2.595004 m 1.038003,-8.9713 v 3.558863 l 0.815573,2.817433 -1.705288,2.595004"
         id="path44" /><path

         d="m 30.398621,11.714591 -4.596865,-1.482861 -3.52684,3.194784 -0.106166,1.698653 -0.444857,2.669148 3.114005,2.520861 4.448579,-0.370715 m 4.96758,-8.22987 4.596865,-1.482861 3.52684,3.194784 0.106166,1.698653 0.444857,2.669148 -3.114005,2.520861 -4.448579,-0.370715"
         id="path45"
         sodipodi:nodetypes="ccccccc" /><path

         d="m 24.170611,25.65347 1.384934,-2.492882 2.767072,-1.659125 m 12.15945,4.152007 -1.384934,-2.492882 -2.767072,-1.659125"
         id="path46"
         sodipodi:nodetypes="ccc" /><path

         d="m 28.989903,21.872178 2.372577,4.967581 m 4.300295,-4.967581 -2.372577,4.967581"
         id="path47" /><path

         d="m 18.758173,12.381877 -2.595004,-1.408716 2.001861,-4.3744361 3.410577,-0.8897157 2.427735,-1.1521454 6.396247,0.1636088 0.857308,2.1899088 -0.413418,3.0989206 m 15.051026,2.372575 2.595004,-1.408716 -2.001861,-4.3744361 -3.410577,-0.8897157 -2.427735,-1.1521454 -6.396247,0.1636088 -0.857308,2.1899088 0.413418,3.0989206"
         id="path48"
         sodipodi:nodetypes="cccccccc" /></g></g></svg>
