<?xml version="1.0" encoding="UTF-8" standalone="no"?>
<!-- Created with Inkscape (http://www.inkscape.org/) -->

<svg
   width="50mm"
   height="40mm"
   viewBox="0 0 50 40"
   version="1.1"
   id="svg1"
   xml:space="preserve"
   inkscape:version="1.3.2 (091e20e, 2023-11-25)"
   sodipodi:docname="mybrain.svg"
   xmlns:inkscape="http://www.inkscape.org/namespaces/inkscape"
   xmlns:sodipodi="http://sodipodi.sourceforge.net/DTD/sodipodi-0.dtd"
   xmlns="http://www.w3.org/2000/svg"
   xmlns:svg="http://www.w3.org/2000/svg"><sodipodi:namedview
     id="namedview1"
     pagecolor="#ffffff"
     bordercolor="#000000"
     borderopacity="0.25"
     inkscape:showpageshadow="2"
     inkscape:pageopacity="0.0"
     inkscape:pagecheckerboard="0"
     inkscape:deskcolor="#d1d1d1"
     inkscape:document-units="mm"
     inkscape:zoom="3.2385911"
     inkscape:cx="90.008276"
     inkscape:cy="89.6995"
     inkscape:window-width="1440"
     inkscape:window-height="900"
     inkscape:window-x="0"
     inkscape:window-y="0"
     inkscape:window-maximized="0"
     inkscape:current-layer="layer2" /><defs
     id="defs1" /><g
     inkscape:groupmode="layer"
     id="layer2"
     inkscape:label="Layer 2"><g
       id="g40"
       transform="matrix(0.36241533,0,0,0.35906756,-13.304439,-33.048531)"
       ><path

         d="m 42.541896,169.43156 12.217913,10.59867 21.491752,2.50247 2.502466,5.88815 19.578103,5.44654 14.42597,-13.54275 38.7146,-13.68995 13.54275,2.20806 5.00492,-7.06579 -8.97943,-28.70473 -40.77544,-29.44076 -43.277918,12.95393 -30.471184,25.76066 z"
         id="path5" /><path

         d="m 76.693174,180.32464 4.563317,-15.6036 45.633169,-18.84209"
         id="path6" /><path

         d="m 135.42749,156.33042 5.15213,-12.95393 6.62417,-8.24341"
         id="path8" /><path

         d="m 93.474407,149.41184 v -13.98435 l 6.476965,-5.15214 -0.147204,-8.53782 10.451472,-7.50739"
         id="path15" /><path

         d="m 86.090349,169.98131 5.655569,2.98488 5.027173,-1.25679 0.942597,-6.12687 11.782442,-1.41389 1.41389,7.22656 2.35648,-7.06946 9.89725,-8.64046 6.44107,0.7855"
         id="path21" /><path

         d="m 89.232331,182.54924 h 9.58305 l 7.226559,-7.22656 9.26885,0.4713 7.54076,-6.75527 8.95466,-0.62839 -8.32626,-6.28397"
         id="path22" /><path

         d="m 139.81827,161.96925 h 8.32625 l -0.94259,-10.21145 -3.29909,-2.04229 10.83985,-2.67068"
         id="path23" /><path

         d="m 106.04194,148.93002 -5.96976,-6.91236 9.42595,-11.31115 4.08458,4.71298 2.19938,-16.65251 10.21145,-0.3142"
         id="path24" /><path

         d="m 126.30774,131.80621 -0.9426,-5.49847 5.65557,-5.65557 6.28397,4.71297 1.57099,4.55588"
         id="path25" /><path

         d="m 132.27751,129.29262 4.87007,8.79756 -3.29908,10.21144"
         id="path26" /><path

         d="m 76.664398,147.67322 4.084577,12.09664 5.96977,0.9426"
         id="path27" /><path

         d="m 85.93325,154.42849 -3.770381,-13.03923 -6.283968,-0.7855 -5.184273,11.78244"
         id="path28" /><path

         d="m 59.854787,142.64605 v 16.33832 l 13.03923,2.67068"
         id="path29" /><path

         d="m 52.942423,154.27139 6.441064,14.29603"
         id="path30" /><path

         d="m 65.824554,166.83932 12.096636,-1.72809 1.885191,-3.77038"
         id="path31" /><path

         d="m 70.537529,141.86056 -6.283967,-6.75527 7.226564,-5.34137 6.126866,-8.95465 13.353431,-1.571 2.827785,5.34138"
         id="path32" /><path

         d="m 82.634166,126.62194 0.785497,11.31114 5.341371,-4.08458"
         id="path33" /><path

         d="m 49.800438,149.40132 5.184272,-0.3142 -0.628396,-4.24168"
         id="path34" /><path

         d="m 53.256621,166.83932 7.383661,8.64046 8.640456,1.72809 6.283965,-5.18427"
         id="path35" /><path

         d="m 85.619052,188.36191 5.49847,-3.29908"
         id="path36" /><path

         d="m 109.49813,142.17475 5.65557,6.75527"
         id="path37" /><path

         d="m 121.43766,132.9059 v 12.72504"
         id="path38" /><path

         d="m 151.44361,154.89979 4.87007,1.09969 4.24168,-7.22656"
         id="path39" /><path

         d="m 114.05218,108.95229 4.17264,6.49077"
         id="path40" /></g></g></svg>
