<?xml version="1.0" encoding="UTF-8" standalone="no"?>
<!-- Created with Inkscape (http://www.inkscape.org/) -->

<svg
   width="65mm"
   height="40mm"
   viewBox="0 0 65 40"
   version="1.1"
   id="svg1"
   xml:space="preserve"
   inkscape:version="1.3.2 (091e20e, 2023-11-25)"
   sodipodi:docname="mybrain.svg"
   xmlns:inkscape="http://www.inkscape.org/namespaces/inkscape"
   xmlns:sodipodi="http://sodipodi.sourceforge.net/DTD/sodipodi-0.dtd"
   xmlns="http://www.w3.org/2000/svg"
   xmlns:svg="http://www.w3.org/2000/svg"><sodipodi:namedview
     id="namedview1"
     pagecolor="#ffffff"
     bordercolor="#000000"
     borderopacity="0.25"
     inkscape:showpageshadow="2"
     inkscape:pageopacity="0.0"
     inkscape:pagecheckerboard="0"
     inkscape:deskcolor="#d1d1d1"
     inkscape:document-units="mm"
     inkscape:zoom="2.1356853"
     inkscape:cx="129.70076"
     inkscape:cy="115.65374"
     inkscape:window-width="1440"
     inkscape:window-height="847"
     inkscape:window-x="0"
     inkscape:window-y="25"
     inkscape:window-maximized="0"
     inkscape:current-layer="layer2" /><defs
     id="defs1" /><g
     inkscape:groupmode="layer"
     id="layer2"
     inkscape:label="Layer 2"><path
       d="M 36.899557,3.1750003 21.214725,7.8263936 10.171472,17.07596 8.73125,26.801462 l 4.428153,3.805969 7.788672,0.898653 0.906921,2.114085 7.095691,1.955436 5.228106,-4.862752 14.030667,-4.915462 4.908227,0.792717 1.813841,-2.536798 -3.25458,-10.306866 z"
       id="path1"
        /><path
       d="m 21.108197,30.713015 1.653816,-5.602747 16.538158,-6.765583"
       id="path6"
        /><path
       d="m 42.394412,22.097469 1.86721,-4.651336 2.400701,-2.959941"
       id="path8"
        /><path
       d="m 27.189972,19.613232 v -5.021327 l 2.347353,-1.84997 -0.05335,-3.0656541 3.787773,-2.6956529"
       id="path15"
        /><path
       d="m 24.513877,26.999061 2.049664,1.071773 1.821927,-0.451272 0.341609,-2.19996 4.270137,-0.507682 0.512416,2.594823 0.854024,-2.538414 3.586915,-3.102509 2.334343,0.282048"
       id="path21"
        /><path
       d="m 25.652581,31.511797 h 3.473044 l 2.619013,-2.594824 3.359173,0.169229 2.732887,-2.425598 3.245306,-0.225635 -3.017564,-2.25637"
       id="path22"
        /><path
       d="m 43.985697,24.12219 h 3.017561 l -0.341609,-3.6666 -1.195641,-0.73332 3.928528,-0.958955"
       id="path23"
        /><path
       d="m 31.744638,19.440226 -2.163533,-2.482005 3.416109,-4.06147 1.480315,1.692281 0.797089,-5.9793792 3.700786,-0.112819"
       id="path24"
        /><path
       d="m 39.089274,13.291617 -0.341612,-1.974322 2.049665,-2.0307316 2.277407,1.6922746 0.569351,1.635869"
       id="path25"
        /><path
       d="m 41.252811,12.389069 1.764988,3.158922 -1.195638,3.666597"
       id="path26"
        /><path
       d="m 21.097768,18.988949 1.480313,4.343511 2.163536,0.338457"
       id="path27"
        /><path
       d="m 24.456942,21.414548 -1.366444,-4.681965 -2.277406,-0.282047 -1.87886,4.230692"
       id="path28"
        /><path
       d="m 15.005707,17.183856 v 5.86656 l 4.725617,0.958955"
       id="path29"
        /><path
       d="m 12.500561,21.358138 2.33434,5.133241"
       id="path30"
        /><path
       d="m 17.169242,25.870874 4.384007,-0.620501 0.683222,-1.353821"
       id="path31"
        /><path
       d="m 18.877297,16.901812 -2.277406,-2.425599 2.619017,-1.917916 2.22047,-3.2153241 4.839489,-0.5640951 1.024831,1.9179162"
       id="path32"
        /><path
       d="m 23.261303,11.430114 0.284676,4.061467 1.935795,-1.46664"
       id="path33"
        /><path
       d="m 11.361857,19.609454 1.87886,-0.112819 -0.227741,-1.52305"
       id="path34"
        /><path
       d="m 12.614431,25.870874 2.675952,3.102509 3.131433,0.620501 2.277406,-1.861503"
       id="path35"
        /><path
       d="m 24.343072,33.598938 1.99273,-1.184593"
       id="path36"
        /><path
       d="m 32.997214,17.014627 2.049665,2.425599"
       id="path37"
        /><path
       d="m 37.324283,13.686484 v 4.569149"
       id="path38"
        /><path
       d="m 48.198899,21.583776 1.764988,0.394863 1.53725,-2.594823"
       id="path39"
        /><path
       d="M 34.647672,5.0855266 36.1599,7.4161443"
       id="path40"
        /></g></svg>
