<?xml version="1.0" encoding="UTF-8" standalone="no"?>
<!-- Created with Inkscape (http://www.inkscape.org/) -->

<svg
   width="65mm"
   height="40mm"
   viewBox="0 0 65 40"
   version="1.1"
   id="svg1"
   xml:space="preserve"
   inkscape:version="1.3.2 (091e20e, 2023-11-25)"
   sodipodi:docname="mybrain.svg"
   xmlns:inkscape="http://www.inkscape.org/namespaces/inkscape"
   xmlns:sodipodi="http://sodipodi.sourceforge.net/DTD/sodipodi-0.dtd"
   xmlns="http://www.w3.org/2000/svg"
   xmlns:svg="http://www.w3.org/2000/svg"><sodipodi:namedview
     id="namedview1"
     pagecolor="#ffffff"
     bordercolor="#000000"
     borderopacity="0.25"
     inkscape:showpageshadow="2"
     inkscape:pageopacity="0.0"
     inkscape:pagecheckerboard="0"
     inkscape:deskcolor="#d1d1d1"
     inkscape:document-units="mm"
     inkscape:zoom="2.1356853"
     inkscape:cx="129.70076"
     inkscape:cy="115.65374"
     inkscape:window-width="1440"
     inkscape:window-height="847"
     inkscape:window-x="0"
     inkscape:window-y="25"
     inkscape:window-maximized="0"
     inkscape:current-layer="layer2" /><defs
     id="defs1" /><g
     inkscape:groupmode="layer"
     id="layer2"
     inkscape:label="Layer 2"><path
       d="m 117.35453,100.88222 -43.278612,12.95409 -30.471265,25.75996 -3.973955,27.08544 12.21845,10.59959 21.491011,2.50274 2.502436,5.88771 19.578893,5.44587 14.425732,-13.54272 38.71433,-13.68952 13.5431,2.20771 5.00487,-7.06496 -8.98025,-28.70453 z"
       id="path1"
       transform="matrix(0.36241532,0,0,0.35906755,-5.366939,-33.04853)" /><path
       d="m 73.781977,177.57535 4.563317,-15.6036 45.633166,-18.84209"
       id="path6"
       transform="matrix(0.36241532,0,0,0.35906755,-5.366939,-33.04853)" /><path
       d="m 132.51629,153.58113 5.15213,-12.95393 6.62417,-8.24341"
       id="path8"
       transform="matrix(0.36241532,0,0,0.35906755,-5.366939,-33.04853)" /><path
       d="M 90.563208,146.66255 V 132.6782 l 6.47697,-5.15215 -0.14721,-8.53782 10.451472,-7.50737"
       id="path15"
       transform="matrix(0.36241532,0,0,0.35906755,-5.366939,-33.04853)" /><path
       d="m 83.179152,167.23202 5.655566,2.98488 5.02718,-1.25679 0.94259,-6.12687 11.782442,-1.41389 1.41389,7.22656 2.35648,-7.06946 9.89725,-8.64046 6.44107,0.7855"
       id="path21"
       transform="matrix(0.36241532,0,0,0.35906755,-5.366939,-33.04853)" /><path
       d="m 86.321138,179.79995 h 9.58305 l 7.226552,-7.22656 9.26885,0.4713 7.54076,-6.75527 8.95466,-0.62839 -8.32626,-6.28397"
       id="path22"
       transform="matrix(0.36241532,0,0,0.35906755,-5.366939,-33.04853)" /><path
       d="m 136.90707,159.21996 h 8.32625 l -0.94259,-10.21145 -3.29909,-2.04229 10.83985,-2.67068"
       id="path23"
       transform="matrix(0.36241532,0,0,0.35906755,-5.366939,-33.04853)" /><path
       d="m 103.13074,146.18073 -5.969762,-6.91236 9.425952,-11.31116 4.08458,4.71299 2.19938,-16.65252 10.21145,-0.3142"
       id="path24"
       transform="matrix(0.36241532,0,0,0.35906755,-5.366939,-33.04853)" /><path
       d="m 123.39654,129.05691 -0.9426,-5.49847 5.65557,-5.65557 6.28397,4.71297 1.57099,4.55588"
       id="path25"
       transform="matrix(0.36241532,0,0,0.35906755,-5.366939,-33.04853)" /><path
       d="m 129.36631,126.54332 4.87007,8.79757 -3.29908,10.21144"
       id="path26"
       transform="matrix(0.36241532,0,0,0.35906755,-5.366939,-33.04853)" /><path
       d="m 73.753201,144.92393 4.084577,12.09664 5.96977,0.9426"
       id="path27"
       transform="matrix(0.36241532,0,0,0.35906755,-5.366939,-33.04853)" /><path
       d="m 83.022053,151.6792 -3.770381,-13.03923 -6.283968,-0.7855 -5.184273,11.78244"
       id="path28"
       transform="matrix(0.36241532,0,0,0.35906755,-5.366939,-33.04853)" /><path
       d="m 56.94359,139.89676 v 16.33832 l 13.03923,2.67068"
       id="path29"
       transform="matrix(0.36241532,0,0,0.35906755,-5.366939,-33.04853)" /><path
       d="m 50.031226,151.5221 6.441064,14.29603"
       id="path30"
       transform="matrix(0.36241532,0,0,0.35906755,-5.366939,-33.04853)" /><path
       d="m 62.913357,164.09003 12.096636,-1.72809 1.885191,-3.77038"
       id="path31"
       transform="matrix(0.36241532,0,0,0.35906755,-5.366939,-33.04853)" /><path
       d="m 67.626332,139.11127 -6.283967,-6.75527 7.226564,-5.34138 6.126866,-8.95465 13.353433,-1.571 2.82778,5.34138"
       id="path32"
       transform="matrix(0.36241532,0,0,0.35906755,-5.366939,-33.04853)" /><path
       d="m 79.722969,123.87264 0.785497,11.31115 5.341372,-4.08458"
       id="path33"
       transform="matrix(0.36241532,0,0,0.35906755,-5.366939,-33.04853)" /><path
       d="m 46.889241,146.65203 5.184272,-0.3142 -0.628396,-4.24168"
       id="path34"
       transform="matrix(0.36241532,0,0,0.35906755,-5.366939,-33.04853)" /><path
       d="m 50.345424,164.09003 7.383661,8.64046 8.640456,1.72809 6.283965,-5.18427"
       id="path35"
       transform="matrix(0.36241532,0,0,0.35906755,-5.366939,-33.04853)" /><path
       d="m 82.707855,185.61262 5.498473,-3.29908"
       id="path36"
       transform="matrix(0.36241532,0,0,0.35906755,-5.366939,-33.04853)" /><path
       d="m 106.58693,139.42546 5.65557,6.75527"
       id="path37"
       transform="matrix(0.36241532,0,0,0.35906755,-5.366939,-33.04853)" /><path
       d="m 118.52646,130.15661 v 12.72504"
       id="path38"
       transform="matrix(0.36241532,0,0,0.35906755,-5.366939,-33.04853)" /><path
       d="m 148.53241,152.1505 4.87007,1.09969 4.24168,-7.22656"
       id="path39"
       transform="matrix(0.36241532,0,0,0.35906755,-5.366939,-33.04853)" /><path
       d="m 111.14098,106.20302 4.17264,6.49075"
       id="path40"
       transform="matrix(0.36241532,0,0,0.35906755,-5.366939,-33.04853)" /></g></svg>
